<svg width="610" height="567" viewBox="0 0 610 567" fill="none" xmlns="http://www.w3.org/2000/svg">
<path fill-rule="evenodd" clip-rule="evenodd" d="M601.257 333.969L601.295 333.992C603.603 335.456 606.631 335.065 608.491 333.056C610.362 331.035 610.51 327.961 608.842 325.77C560.786 262.618 494.606 195.933 427.335 156.741C361.904 118.621 293.342 105.499 240.213 150.709C236.517 146.837 235.35 143.95 235.136 141.677C234.848 138.611 236.096 135.053 239.459 129.51C240.785 127.325 242.383 124.933 244.144 122.297C250.943 112.12 260.185 98.2872 265.689 78.5003C273.906 48.956 260.844 19.6357 238.399 6.746C227.08 0.245911 213.438 -2.017 199.256 1.99929C185.528 5.88725 171.754 15.5195 159.174 31.9521C111.717 47.6325 75.7497 65.7372 49.8551 84.1122C23.7292 102.651 7.51347 121.714 0.419073 139.155C-0.706754 141.922 0.508151 145.089 3.19616 146.393C5.88417 147.697 9.1227 146.691 10.5989 144.093C12.7336 140.337 16.6548 136.107 22.3464 131.558C27.9821 127.054 35.0629 122.465 43.1735 117.91C59.3938 108.803 79.3276 100.062 99.1089 92.5828C118.875 85.11 138.334 78.9558 153.542 74.9922C161.158 73.0072 167.613 71.5967 172.46 70.8362C174.892 70.4546 176.805 70.2551 178.2 70.2088C179.091 70.1793 179.555 70.2227 179.718 70.2381C179.728 70.2391 179.737 70.2399 179.745 70.2406C179.762 70.2421 179.774 70.2431 179.781 70.2431C181.035 70.756 182.288 71.1918 183.307 71.5457C183.607 71.6501 183.887 71.7475 184.14 71.8376C185.441 72.2998 186.202 72.6222 186.746 72.95C187.198 73.2223 187.399 73.44 187.549 73.68C187.723 73.9594 188.023 74.5913 188.198 75.9474C188.573 78.8479 188.249 83.9056 186.384 92.8766C184.547 101.714 181.331 113.842 176.315 130.623C155.505 200.249 201.191 251.296 235.729 269.044C250.801 302.808 279.233 323.175 304.692 336.14C317.692 342.76 330.078 347.531 339.689 351.166L341.408 351.816C345.504 353.362 348.95 354.664 351.719 355.831C354.822 357.139 356.349 357.994 356.922 358.435C356.983 358.528 357.126 358.754 357.338 359.176C357.728 359.954 358.191 361.071 358.712 362.555C359.75 365.515 360.871 369.507 362.032 374.266C364.348 383.759 366.713 395.831 368.844 407.776C370.972 419.701 372.851 431.411 374.199 440.146C374.873 444.512 375.413 448.131 375.785 450.656C375.845 451.067 375.901 451.45 375.953 451.802C376.002 452.137 376.047 452.444 376.087 452.723L376.125 452.985L345.611 520.818C344.62 523.019 345.132 525.606 346.886 527.265C348.64 528.923 351.251 529.289 353.393 528.177L376.464 516.195L334.729 557.289C332.632 559.355 332.464 562.682 334.342 564.948C336.221 567.215 339.521 567.666 341.939 565.988L424.444 508.71C425.506 507.973 426.284 506.894 426.649 505.654C430.796 491.575 438.118 469.741 446.567 450.095C450.795 440.265 455.25 431.111 459.672 423.789C464.217 416.266 468.298 411.416 471.541 409.355C472.571 408.7 474.371 408.127 477.307 408.05C480.201 407.975 483.791 408.392 488.012 409.317C496.455 411.166 506.676 414.869 517.517 419.612C539.157 429.078 562.395 442.292 577.167 451.575C579.292 452.911 582.043 452.689 583.927 451.032C585.812 449.374 586.382 446.674 585.329 444.395C582.621 438.535 574.592 430.071 560.201 420.848C545.554 411.459 523.689 400.881 492.32 391.116C462.011 381.681 436.508 367.345 417.342 352.979C398.031 338.504 385.594 324.335 380.951 315.51C380.643 314.925 380.235 314.397 379.745 313.952C378.88 313.167 378.013 312.361 377.147 311.54C379.394 313.359 381.802 315.337 384.382 317.484C413.811 341.977 452.032 365.127 490.439 381.163C528.694 397.135 567.895 406.369 599.055 402.149C601.269 401.849 603.1 400.277 603.732 398.133C604.363 395.99 603.678 393.676 601.98 392.223L601.978 392.221L601.958 392.204L601.867 392.125C601.784 392.053 601.657 391.942 601.489 391.794C601.153 391.499 600.654 391.056 600.022 390.482C598.757 389.334 596.96 387.665 594.858 385.604C590.638 381.466 585.267 375.823 580.513 369.692C575.689 363.472 571.828 357.163 570.195 351.672C568.607 346.336 569.352 342.867 572.005 340.356C580.383 332.43 587.861 331.207 592.963 331.592C595.615 331.791 597.786 332.442 599.272 333.03C600.011 333.323 600.566 333.595 600.91 333.777C601.002 333.825 601.078 333.867 601.138 333.901C601.144 333.904 601.15 333.908 601.157 333.911C601.2 333.936 601.233 333.955 601.257 333.969ZM167.18 40.1671C178.957 24.3238 191.193 16.0688 202.346 12.9103C213.444 9.7671 223.949 11.5239 232.753 16.5801C250.554 26.8031 261.64 50.7416 254.765 75.4612C249.802 93.3059 241.855 105.238 235.118 115.354C233.204 118.227 231.388 120.954 229.766 123.628C226.239 129.44 223.19 135.756 223.848 142.74C224.523 149.903 228.905 156.252 236.417 162.683C238.598 164.549 241.828 164.492 243.941 162.549C291.909 118.436 355.879 128.235 421.628 166.54C482.832 202.197 543.672 261.638 590.16 320.21C582.556 320.476 573.424 323.404 564.213 332.119C557.309 338.652 557.047 347.242 559.327 354.906C561.561 362.416 566.441 370.05 571.553 376.642C576.021 382.403 580.92 387.687 585.022 391.816C558.828 392.213 527.036 384.154 494.807 370.698C457.4 355.08 420.159 332.508 391.634 308.767C377.128 296.694 367.462 289.479 361.484 285.879C359.971 284.967 358.586 284.221 357.344 283.676C356.211 283.18 354.746 282.645 353.201 282.558C351.579 282.468 348.382 282.914 346.793 286.145C345.627 288.515 346.258 290.826 346.516 291.671C347.164 293.792 348.624 296.151 350.102 298.262C351.693 300.536 353.734 303.112 356.025 305.79C360.419 310.925 365.927 316.659 371.404 321.691C377.432 332.563 391.137 347.508 410.542 362.053C427.452 374.728 449.007 387.342 474.292 396.897C471.15 397.246 468.1 398.106 465.46 399.784C459.849 403.35 454.64 410.19 449.967 417.926C445.173 425.864 440.485 435.538 436.152 445.614C427.857 464.901 420.663 486.124 416.344 500.529L389.869 518.909L414.121 495.029C414.698 494.461 415.147 493.775 415.437 493.019L451.658 398.561C452.713 395.81 451.486 392.709 448.833 391.426L384.44 360.275C382.478 359.326 380.147 359.585 378.442 360.942C376.737 362.299 375.96 364.512 376.443 366.637L396.136 453.176L371.608 505.939L362.642 510.596L387.141 456.135C387.581 455.157 387.735 454.074 387.584 453.012L386.84 453.117C386.887 453.111 386.93 453.104 386.971 453.099C387.584 453.011 387.584 453.013 387.584 453.012L387.583 453.007L387.433 451.96C387.335 451.278 387.19 450.278 387.002 449.004C386.627 446.457 386.083 442.812 385.405 438.417C384.048 429.629 382.155 417.825 380.006 405.784C377.861 393.763 375.447 381.417 373.047 371.578C371.85 366.671 370.628 362.269 369.41 358.8C368.803 357.069 368.159 355.462 367.474 354.094C366.85 352.85 365.944 351.288 364.632 350.108C362.561 348.247 359.293 346.717 356.122 345.381C353.139 344.124 349.466 342.737 345.414 341.207L343.699 340.559C334.13 336.94 322.242 332.352 309.837 326.035C284.968 313.37 258.658 294.071 245.322 262.674C244.785 261.411 243.809 260.386 242.574 259.788C210.898 244.449 168.127 197.612 187.179 133.871C192.224 116.99 195.549 104.498 197.485 95.1849C199.393 86.0053 200.075 79.3814 199.443 74.4942C199.115 71.9564 198.41 69.668 197.169 67.6786C195.904 65.6498 194.281 64.2503 192.595 63.235C191.001 62.2754 189.309 61.64 187.937 61.1523C187.545 61.0128 187.175 60.8841 186.82 60.7603C185.805 60.4072 184.906 60.0941 183.925 59.6859C181.952 58.8651 179.609 58.8159 177.824 58.8751C175.789 58.9426 173.374 59.2142 170.703 59.6333C165.343 60.4743 158.489 61.9841 150.683 64.0187C135.046 68.0939 115.203 74.3751 95.0998 81.9754C75.3991 89.4236 55.3006 98.1947 38.6024 107.475C43.8089 102.824 49.7318 98.104 56.4159 93.3609C81.4777 75.577 116.903 57.7171 164.393 42.1728C165.507 41.8083 166.48 41.1076 167.18 40.1671ZM405.29 487.811L381.776 510.965L407.235 456.199C407.765 455.059 407.901 453.775 407.622 452.55L390.115 375.617L439.206 399.365L405.29 487.811Z" fill="black"/>
</svg>
