<svg width="1440" height="860" viewBox="0 0 1440 860" fill="none" xmlns="http://www.w3.org/2000/svg">
<mask id="mask0_27_14672" style="mask-type:alpha" maskUnits="userSpaceOnUse" x="0" y="0" width="1440" height="860">
<rect width="1440" height="860" fill="#443F4E"/>
</mask>
<g mask="url(#mask0_27_14672)">
<path fill-rule="evenodd" clip-rule="evenodd" d="M1466.45 618.442L1466.51 618.476C1470.62 621.078 1476 620.384 1479.31 616.814C1482.64 613.221 1482.91 607.755 1479.94 603.857C1397.98 496.11 1285.09 382.314 1170.32 315.424C1058.82 250.444 941.819 227.93 851.058 304.916C845.016 298.501 843.137 293.745 842.789 290.043C842.309 284.953 844.374 278.982 850.102 269.538C852.354 265.826 855.07 261.759 858.068 257.271C869.662 239.912 885.469 216.246 894.872 182.424C908.931 131.858 886.591 81.6498 848.146 59.5638C828.752 48.4221 805.37 44.5426 781.071 51.4266C757.582 58.0813 734.053 74.5452 712.582 102.566C631.69 129.314 570.36 160.198 526.186 191.555C481.599 223.205 453.882 255.779 441.744 285.627C439.743 290.549 441.906 296.18 446.69 298.498C451.474 300.815 457.236 299.024 459.861 294.403C463.464 288.06 470.105 280.884 479.791 273.14C489.377 265.475 501.431 257.659 515.248 249.898C542.882 234.376 576.851 219.474 610.57 206.721C644.262 193.979 677.429 183.486 703.345 176.729C716.325 173.345 727.316 170.943 735.562 169.649C739.7 168.999 742.944 168.662 745.297 168.584C746.761 168.535 747.525 168.604 747.794 168.628C747.831 168.632 747.859 168.634 747.878 168.635C750.008 169.505 752.137 170.245 753.857 170.843C754.367 171.02 754.842 171.185 755.269 171.337C757.484 172.125 758.747 172.663 759.636 173.199C760.361 173.635 760.651 173.963 760.865 174.308C761.124 174.723 761.622 175.741 761.915 178.013C762.545 182.89 762.005 191.462 758.826 206.756C755.697 221.814 750.218 242.489 741.666 271.111C706.134 390.036 784.06 477.241 843.055 507.639C868.825 565.276 917.362 600.039 960.781 622.158C982.97 633.462 1004.11 641.606 1020.5 647.807L1023.43 648.914L1023.44 648.917C1030.42 651.556 1036.29 653.772 1041 655.759C1046.21 657.956 1048.76 659.385 1049.72 660.103C1049.83 660.275 1050.05 660.637 1050.37 661.268C1051.02 662.574 1051.81 664.461 1052.69 666.984C1054.46 672.015 1056.36 678.81 1058.34 686.922C1062.29 703.102 1066.32 723.685 1069.95 744.058C1073.58 764.395 1076.78 784.367 1079.08 799.265C1080.23 806.711 1081.15 812.883 1081.78 817.19C1082.01 818.719 1082.2 820.013 1082.35 821.045L1030.36 936.646C1028.6 940.562 1029.52 945.162 1032.64 948.11C1035.76 951.058 1040.41 951.707 1044.22 949.728L1081.1 930.564L1011.9 998.734C1008.17 1002.41 1007.87 1008.33 1011.21 1012.35C1014.56 1016.38 1020.43 1017.18 1024.73 1014.2L1165.42 916.494C1167.3 915.182 1168.69 913.265 1169.34 911.06C1176.4 887.055 1188.89 849.826 1203.28 816.333C1210.49 799.576 1218.08 783.979 1225.61 771.512C1233.35 758.686 1240.27 750.486 1245.71 747.026C1247.38 745.966 1250.36 744.996 1255.33 744.866C1260.21 744.739 1266.3 745.445 1273.48 747.017C1287.83 750.162 1305.23 756.468 1323.71 764.552C1360.58 780.689 1400.19 803.217 1425.37 819.045C1429.15 821.422 1434.04 821.03 1437.4 818.083C1440.75 815.136 1441.77 810.335 1439.89 806.282C1435.23 796.177 1421.45 781.686 1396.89 765.94C1371.88 749.902 1334.56 731.843 1281.04 715.177C1229.41 699.099 1185.97 674.669 1153.32 650.189C1120.41 625.516 1099.26 601.39 1091.38 586.414C1091.23 586.118 1091.06 585.831 1090.88 585.552C1092.72 587.073 1094.63 588.649 1096.59 590.282C1146.8 632.091 1212.01 671.601 1277.54 698.969C1342.8 726.225 1409.73 742.01 1462.97 734.797C1466.91 734.263 1470.17 731.468 1471.29 727.657C1472.42 723.847 1471.2 719.732 1468.18 717.147L1468.18 717.144L1468.15 717.116L1467.99 716.982C1467.85 716.86 1467.63 716.671 1467.35 716.42C1466.78 715.917 1465.93 715.163 1464.85 714.186C1462.7 712.23 1459.64 709.388 1456.06 705.877C1448.87 698.825 1439.72 689.213 1431.63 678.775C1423.42 668.179 1416.87 657.466 1414.11 648.172C1411.43 639.151 1412.71 633.417 1417.08 629.28C1431.28 615.843 1443.91 613.797 1452.5 614.444C1456.97 614.781 1460.63 615.878 1463.13 616.869C1464.37 617.362 1465.31 617.82 1465.88 618.123C1466.17 618.275 1466.36 618.386 1466.45 618.442ZM726.831 117.17C746.874 90.1979 767.667 76.1851 786.573 70.829C805.38 65.5005 823.174 68.4779 838.094 77.0486C868.275 94.3875 887.111 135.027 875.435 177.024C866.991 207.394 853.486 227.68 842.001 244.931C838.733 249.84 835.629 254.503 832.851 259.083C826.831 269.009 821.568 279.88 822.703 291.933C823.868 304.303 831.432 315.222 844.278 326.222C848.158 329.545 853.911 329.443 857.671 325.984C939.253 250.933 1048.09 267.535 1160.16 332.846C1264.24 393.507 1367.73 494.56 1446.92 594.243C1434.02 594.878 1418.67 600.009 1403.21 614.637C1391.29 625.927 1390.86 640.762 1394.77 653.918C1398.6 666.8 1406.96 679.869 1415.69 691.128C1423.07 700.657 1431.15 709.418 1438.01 716.364C1393.62 716.828 1339.86 703.14 1285.32 680.362C1221.57 653.736 1158.11 615.255 1109.5 574.786C1084.76 554.191 1068.26 541.867 1058.04 535.707C1055.45 534.146 1053.07 532.864 1050.93 531.925C1048.98 531.071 1046.43 530.135 1043.71 529.983C1040.86 529.823 1035.2 530.609 1032.39 536.332C1030.33 540.523 1031.44 544.597 1031.89 546.056C1033.02 549.74 1035.54 553.81 1038.06 557.414C1040.78 561.307 1044.27 565.711 1048.19 570.287C1055.67 579.043 1065.06 588.815 1074.39 597.4C1084.73 616.013 1108.14 641.52 1141.21 666.322C1169.73 687.707 1205.99 708.989 1248.49 725.231C1243.66 725.937 1238.99 727.398 1234.88 730.009C1225.23 736.148 1216.31 747.889 1208.33 761.091C1200.14 774.654 1192.14 791.175 1184.75 808.371C1170.62 841.227 1158.37 877.371 1151 901.95L1109.96 930.449L1147.87 893.112C1148.89 892.101 1149.69 890.883 1150.21 889.538L1211.97 728.412C1213.85 723.522 1211.66 718.011 1206.95 715.729L1097.15 662.592C1093.66 660.903 1089.51 661.363 1086.47 663.775C1083.44 666.187 1082.05 670.124 1082.91 673.903L1116.46 821.385L1074.76 911.134L1060.66 918.456L1101.95 826.642C1102.73 824.904 1103 822.98 1102.74 821.094L1092.75 822.508C1102.74 821.094 1102.74 821.094 1102.74 821.094L1102.67 820.63L1102.48 819.299C1102.31 818.134 1102.06 816.429 1101.74 814.255C1101.1 809.909 1100.18 803.691 1099.02 796.192C1096.71 781.201 1093.48 761.063 1089.81 740.518C1086.16 720.011 1082.04 698.941 1077.94 682.146C1075.9 673.77 1073.81 666.247 1071.73 660.311C1070.69 657.35 1069.59 654.591 1068.41 652.236C1067.34 650.102 1065.76 647.381 1063.47 645.316C1059.88 642.087 1054.24 639.453 1048.84 637.177C1043.74 635.029 1037.47 632.66 1030.56 630.05L1027.64 628.946C1011.32 622.773 991.073 614.955 969.942 604.19C927.576 582.608 882.814 549.747 860.126 496.318C859.172 494.072 857.436 492.248 855.239 491.184C801.342 465.076 728.587 385.356 760.997 276.882C769.602 248.082 775.274 226.761 778.579 210.858C781.834 195.192 783.009 183.838 781.924 175.431C781.359 171.06 780.141 167.097 777.987 163.642C775.789 160.116 772.97 157.686 770.049 155.926C767.292 154.265 764.373 153.17 762.03 152.337C761.355 152.097 760.722 151.876 760.114 151.665C758.389 151.064 756.87 150.535 755.21 149.844C751.755 148.405 747.677 148.327 744.628 148.428C741.133 148.544 736.996 149.01 732.432 149.726C723.273 151.164 711.572 153.743 698.254 157.216C671.575 164.171 637.723 174.89 603.431 187.86C571.114 200.082 538.161 214.395 510.337 229.565C518.507 222.447 527.665 215.239 537.866 207.998C580.559 177.692 640.925 147.245 721.874 120.739C723.856 120.09 725.588 118.843 726.831 117.17ZM1132.15 880.281L1093.77 918.089L1136.21 826.756C1137.15 824.731 1137.39 822.45 1136.9 820.272L1107.24 689.881L1189.82 729.845L1132.15 880.281Z" fill="#ED0B00"/>
</g>
</svg>
