<svg width="1323" height="1323" viewBox="0 0 1323 1323" fill="none" xmlns="http://www.w3.org/2000/svg">
<path fill-rule="evenodd" clip-rule="evenodd" d="M1323 661.5C1323 1026.84 1026.84 1323 661.5 1323C296.164 1323 0 1026.84 0 661.5C0 296.164 296.164 0 661.5 0C1026.84 0 1323 296.164 1323 661.5ZM910.008 1182.73C834.742 1218.68 750.471 1238.81 661.5 1238.81C342.661 1238.81 84.1909 980.339 84.1909 661.5C84.1909 342.661 342.661 84.1909 661.5 84.1909C980.339 84.1909 1238.81 342.661 1238.81 661.5C1238.81 667.838 1238.71 674.153 1238.5 680.442C1198.4 646.637 1128.07 612.274 1025.31 612.274C906.647 612.274 827.487 652.457 789.201 685.19C786.956 680.729 785.371 674.427 785.595 665.577C786.179 642.48 799.472 602.182 848.734 540.017C884.415 494.991 893.557 447.872 881.696 405.713C870.094 364.474 839.415 331.567 802.226 311.477C730.136 272.531 625.223 278.115 565.165 371.424C330.585 423.627 190.374 586.842 147.65 666.186C147.467 666.522 147.287 666.859 147.108 667.197C140.917 678.928 145.391 693.457 157.108 699.674C168.826 705.89 183.364 701.448 189.606 689.744L189.969 689.066C198.33 673.725 218.344 655.914 250.224 637.161C281.685 618.654 321.473 601.067 364.539 585.059C450.601 553.069 546.939 528.414 609.232 515.56L612.981 514.786L616.305 512.887C618.328 511.731 621.198 510.417 624.346 509.467C627.547 508.501 630.243 508.148 632.172 508.221L632.337 508.228C579.441 700.126 583.136 815.856 619.56 890.775C654.109 961.834 715.954 990.983 767.949 1013.49C773.57 1051.45 797.756 1085.94 822.856 1112.68C851.914 1143.64 886.407 1168.68 910.008 1182.73ZM1048.88 1089.55C1015.28 1105.91 974.959 1121.42 926.478 1136.35C906.516 1123.53 880.183 1103.46 857.935 1079.76C831.469 1051.56 814.837 1022.54 814.837 997.147V981.342L798.193 974.144C742.123 949.905 691.073 927.836 662.827 869.739C633.776 809.987 626.398 706.125 681.632 510.567L683.643 503.447L681.305 496.428C677.52 485.063 671.007 475.642 661.763 469.155C652.69 462.788 642.75 460.479 633.995 460.147C619.367 459.592 605.518 464.393 596.092 469.153C532.034 482.542 435.143 507.49 347.777 539.964C331.159 546.141 314.787 552.626 298.98 559.397C366.462 500.167 462.074 441.717 585.173 416.336L595.76 414.153L601.158 404.787C644.47 329.628 722.989 323.351 779.36 353.804C807.569 369.044 828.006 392.515 835.385 418.742C842.505 444.048 838.491 475.482 811.029 510.137C759.263 575.461 738.475 625.869 737.501 664.361C736.479 704.773 757.623 730.661 782.251 740.004L798.472 746.157L809.431 732.708C826.163 712.173 896.564 660.383 1025.31 660.383C1143.95 660.383 1207.13 711.238 1226.68 736.859C1226.45 753.871 1226.07 770.092 1225.44 785.584C1199.31 904.909 1136.26 1010.42 1048.88 1089.55Z" fill="#ED0B00"/>
</svg>
