<svg width="220" height="220" viewBox="0 0 220 220" fill="none" xmlns="http://www.w3.org/2000/svg">
<path fill-rule="evenodd" clip-rule="evenodd" d="M220 110C220 170.751 170.751 220 110 220C49.2487 220 0 170.751 0 110C0 49.2487 49.2487 0 110 0C170.751 0 220 49.2487 220 110ZM151.324 196.675C138.808 202.653 124.795 206 110 206C56.9807 206 14 163.019 14 110C14 56.9807 56.9807 14 110 14C163.019 14 206 56.9807 206 110C206 111.054 205.983 112.104 205.949 113.15C199.281 107.529 187.585 101.814 170.498 101.814C150.765 101.814 137.602 108.496 131.235 113.939C130.862 113.198 130.598 112.15 130.636 110.678C130.733 106.837 132.943 100.136 141.135 89.7987C147.068 82.3114 148.588 74.476 146.616 67.4654C144.687 60.6079 139.585 55.1359 133.401 51.7951C121.413 45.3189 103.968 46.2474 93.9806 61.7636C54.9725 70.4443 31.6571 97.5852 24.5525 110.779C24.5221 110.835 24.4921 110.891 24.4625 110.947C23.4329 112.898 24.1768 115.314 26.1253 116.348C28.0738 117.382 30.4914 116.643 31.5294 114.697L31.5898 114.584C32.9801 112.033 36.3082 109.071 41.6094 105.953C46.8411 102.875 53.4574 99.9506 60.6187 97.2887C74.9299 91.9691 90.9498 87.8693 101.308 85.7318C101.721 85.6466 102.118 85.4965 102.485 85.2873C102.821 85.0951 103.298 84.8766 103.822 84.7186C104.354 84.5579 104.802 84.4993 105.123 84.5114L105.151 84.5127C96.3546 116.423 96.9689 135.668 103.026 148.126C108.771 159.942 119.055 164.789 127.701 168.533C128.636 174.845 132.658 180.58 136.832 185.027C141.664 190.175 147.4 194.338 151.324 196.675ZM174.417 181.18C168.829 183.9 162.125 186.479 154.063 188.963C150.743 186.831 146.364 183.494 142.665 179.552C138.264 174.863 135.498 170.037 135.498 165.814C135.498 164.219 134.55 162.776 133.086 162.143L132.73 161.989C123.407 157.959 114.918 154.289 110.221 144.628C105.39 134.692 104.163 117.421 113.348 84.9016C113.566 84.1301 113.547 83.311 113.293 82.5504C112.664 80.6605 111.581 79.0939 110.044 78.0151C108.535 76.9564 106.882 76.5724 105.426 76.5172C102.994 76.425 100.691 77.2233 99.1234 78.0149C88.4713 80.2412 72.3593 84.3898 57.8313 89.79C55.068 90.8171 52.3456 91.8956 49.7169 93.0215C60.9385 83.1721 76.8377 73.4526 97.3078 69.2319C98.4275 69.0011 99.3949 68.3021 99.9657 67.3115C107.168 54.8134 120.225 53.7696 129.599 58.8336C134.29 61.3678 137.688 65.2708 138.915 69.632C140.099 73.8402 139.432 79.0673 134.865 84.83C126.257 95.6927 122.8 104.075 122.638 110.476C122.468 117.196 125.984 121.501 130.08 123.054C131.69 123.665 133.511 123.176 134.599 121.841C137.382 118.426 149.088 109.814 170.498 109.814C190.225 109.814 200.731 118.271 203.983 122.531C203.946 125.36 203.882 128.058 203.777 130.634C199.431 150.476 188.948 168.022 174.417 181.18Z" fill="#ED0B00"/>
</svg>
