<svg width="672" height="220" viewBox="0 0 672 220" fill="none" xmlns="http://www.w3.org/2000/svg">
<path fill-rule="evenodd" clip-rule="evenodd" d="M220 110C220 170.751 170.751 220 110 220C49.2487 220 0 170.751 0 110C0 49.2487 49.2487 0 110 0C170.751 0 220 49.2487 220 110ZM151.324 196.675C138.808 202.653 124.795 206 110 206C56.9807 206 14 163.019 14 110C14 56.9807 56.9807 14 110 14C163.019 14 206 56.9807 206 110C206 111.054 205.983 112.104 205.949 113.15C199.281 107.529 187.585 101.814 170.498 101.814C150.765 101.814 137.602 108.496 131.235 113.939C130.862 113.198 130.598 112.15 130.636 110.678C130.733 106.837 132.943 100.136 141.135 89.7987C147.068 82.3114 148.588 74.476 146.616 67.4654C144.687 60.6079 139.585 55.1359 133.401 51.7951C121.413 45.3189 103.968 46.2474 93.9806 61.7636C54.9725 70.4443 31.6571 97.5852 24.5525 110.779C24.5221 110.835 24.4921 110.891 24.4625 110.947C23.4329 112.898 24.1768 115.314 26.1253 116.348C28.0738 117.382 30.4914 116.643 31.5294 114.697L31.5898 114.584C32.9801 112.033 36.3082 109.071 41.6094 105.953C46.8411 102.875 53.4574 99.9506 60.6187 97.2887C74.9299 91.9691 90.9498 87.8693 101.308 85.7318C101.721 85.6466 102.118 85.4965 102.485 85.2873C102.821 85.0951 103.298 84.8766 103.822 84.7186C104.354 84.5579 104.802 84.4993 105.123 84.5114L105.151 84.5127C96.3546 116.423 96.9689 135.668 103.026 148.126C108.771 159.942 119.055 164.789 127.701 168.533C128.636 174.845 132.658 180.58 136.832 185.027C141.664 190.175 147.4 194.338 151.324 196.675ZM174.417 181.18C168.829 183.9 162.125 186.479 154.063 188.963C150.743 186.831 146.364 183.494 142.665 179.552C138.264 174.863 135.498 170.037 135.498 165.814C135.498 164.219 134.55 162.776 133.086 162.143L132.73 161.989C123.407 157.959 114.918 154.289 110.221 144.628C105.39 134.692 104.163 117.421 113.348 84.9016C113.566 84.1301 113.547 83.311 113.293 82.5504C112.664 80.6605 111.581 79.0939 110.044 78.0151C108.535 76.9564 106.882 76.5724 105.426 76.5172C102.994 76.425 100.691 77.2233 99.1234 78.0149C88.4713 80.2412 72.3593 84.3898 57.8313 89.79C55.068 90.8171 52.3456 91.8956 49.7169 93.0215C60.9385 83.1721 76.8377 73.4526 97.3078 69.2319C98.4275 69.0011 99.3949 68.3021 99.9657 67.3115C107.168 54.8134 120.225 53.7696 129.599 58.8336C134.29 61.3678 137.688 65.2708 138.915 69.632C140.099 73.8402 139.432 79.0673 134.865 84.83C126.257 95.6927 122.8 104.075 122.638 110.476C122.468 117.196 125.984 121.501 130.08 123.054C131.69 123.665 133.511 123.176 134.599 121.841C137.382 118.426 149.088 109.814 170.498 109.814C190.225 109.814 200.731 118.271 203.983 122.531C203.946 125.36 203.882 128.058 203.777 130.634C199.431 150.476 188.948 168.022 174.417 181.18Z" fill="white"/>
<path d="M279.391 100.703H321.156V121.375C321.156 127.062 319.141 131.922 315.109 135.953C311.078 139.984 306.203 142 300.484 142H266.594C260.906 142 256.047 139.984 252.016 135.953C247.953 131.922 245.922 127.062 245.922 121.375V96.3438C245.922 90.625 247.953 85.75 252.016 81.7188C256.047 77.6875 260.906 75.6719 266.594 75.6719H312.391V87.7656H274.094C270.469 87.7656 267.672 88.75 265.703 90.7188C263.734 92.6875 262.75 95.5 262.75 99.1562V119.031C262.75 122.656 263.734 125.453 265.703 127.422C267.672 129.391 270.469 130.375 274.094 130.375H292.984C296.641 130.375 299.453 129.391 301.422 127.422C303.359 125.453 304.328 122.656 304.328 119.031V112.375H279.391V100.703Z" fill="white"/>
<path d="M391.797 75.625H408.625V121.375C408.625 127.062 406.609 131.922 402.578 135.953C398.516 139.984 393.641 142 387.953 142H354.062C348.375 142 343.516 139.984 339.484 135.953C335.422 131.922 333.391 127.062 333.391 121.375V75.625H350.219V118.562C350.219 122.188 351.203 124.984 353.172 126.953C355.109 128.922 357.906 129.906 361.562 129.906H380.453C384.109 129.906 386.906 128.922 388.844 126.953C390.812 124.984 391.797 122.188 391.797 118.562V75.625Z" fill="white"/>
<path d="M479.266 108.719V97.75C479.266 94.4062 478.281 91.9062 476.312 90.25C474.344 88.5938 471.547 87.7656 467.922 87.7656H449.031C445.375 87.7656 442.562 88.5938 440.594 90.25C438.656 91.9062 437.688 94.4062 437.688 97.75V108.719H479.266ZM437.688 120.812V142H420.859V96.3438C420.859 90.625 422.875 85.75 426.906 81.7188C430.938 77.6875 435.812 75.6719 441.531 75.6719H475.422C481.109 75.6719 485.969 77.6875 490 81.7188C494.062 85.75 496.094 90.625 496.094 96.3438V142H479.266V120.812H437.688Z" fill="white"/>
<path d="M574.891 108.953C580.672 113.109 583.562 118.719 583.562 125.781V142H566.734V127.188C566.734 123.531 565.75 120.719 563.781 118.75C561.812 116.781 559.016 115.797 555.391 115.797H525.156V142H508.328V87.25C508.328 84.2188 509.5 81.5312 511.844 79.1875C514.219 76.8438 517.062 75.6719 520.375 75.6719H562.891C569.266 75.6719 574.359 77.6875 578.172 81.7188C581.641 85.0312 583.375 89.1562 583.375 94.0938C583.375 100.344 580.547 105.297 574.891 108.953ZM555.391 103.703C559.547 103.703 562.5 103.125 564.25 101.969C566.125 100.844 567.141 98.6094 567.297 95.2656C567.141 92.2969 566.156 90.2656 564.344 89.1719C562.594 88.2344 559.609 87.7656 555.391 87.7656H529.75C528.469 87.7656 527.375 88.2188 526.469 89.125C525.594 90.0312 525.156 90.9688 525.156 91.9375V103.703H555.391Z" fill="white"/>
<path d="M654.203 108.719V97.75C654.203 94.4062 653.219 91.9062 651.25 90.25C649.281 88.5938 646.484 87.7656 642.859 87.7656H623.969C620.312 87.7656 617.5 88.5938 615.531 90.25C613.594 91.9062 612.625 94.4062 612.625 97.75V108.719H654.203ZM612.625 120.812V142H595.797V96.3438C595.797 90.625 597.812 85.75 601.844 81.7188C605.875 77.6875 610.75 75.6719 616.469 75.6719H650.359C656.047 75.6719 660.906 77.6875 664.938 81.7188C669 85.75 671.031 90.625 671.031 96.3438V142H654.203V120.812H612.625ZM624.062 72.3906L632.5 58.75H653.547L640.891 72.3906H624.062Z" fill="white"/>
</svg>
