<svg width="426" height="330" viewBox="0 0 426 330" fill="none" xmlns="http://www.w3.org/2000/svg">
<path fill-rule="evenodd" clip-rule="evenodd" d="M205.078 220C265.829 220 315.078 170.751 315.078 110C315.078 49.2487 265.829 0 205.078 0C144.327 0 95.0781 49.2487 95.0781 110C95.0781 170.751 144.327 220 205.078 220ZM205.078 206C219.873 206 233.886 202.653 246.402 196.675C242.478 194.338 236.742 190.175 231.91 185.027C227.736 180.58 223.714 174.845 222.779 168.533C214.133 164.789 203.849 159.942 198.104 148.126C192.047 135.668 191.433 116.423 200.229 84.5127L200.201 84.5114C199.88 84.4993 199.432 84.5579 198.9 84.7186C198.376 84.8766 197.899 85.0951 197.563 85.2873C197.197 85.4965 196.8 85.6466 196.386 85.7318C186.028 87.8693 170.008 91.9691 155.697 97.2887C148.536 99.9506 141.919 102.875 136.687 105.953C131.386 109.071 128.058 112.033 126.668 114.584L126.608 114.697C125.57 116.643 123.152 117.382 121.203 116.348C119.255 115.314 118.511 112.898 119.541 110.947C119.57 110.891 119.6 110.835 119.631 110.779C126.735 97.5852 150.051 70.4443 189.059 61.7636C199.046 46.2474 216.491 45.3189 228.479 51.7951C234.663 55.1359 239.765 60.6079 241.694 67.4654C243.667 74.476 242.146 82.3114 236.213 89.7987C228.021 100.136 225.811 106.837 225.714 110.678C225.676 112.15 225.94 113.198 226.313 113.939C232.68 108.496 245.843 101.814 265.576 101.814C282.664 101.814 294.359 107.529 301.027 113.15C301.061 112.104 301.078 111.054 301.078 110C301.078 56.9807 258.097 14 205.078 14C152.059 14 109.078 56.9807 109.078 110C109.078 163.019 152.059 206 205.078 206ZM249.141 188.963C257.203 186.479 263.907 183.9 269.495 181.18C284.026 168.022 294.509 150.476 298.855 130.634C298.96 128.058 299.024 125.36 299.062 122.531C295.809 118.271 285.304 109.814 265.576 109.814C244.167 109.814 232.46 118.426 229.677 121.841C228.589 123.176 226.768 123.665 225.158 123.054C221.062 121.501 217.546 117.196 217.716 110.476C217.878 104.075 221.335 95.6927 229.943 84.83C234.51 79.0673 235.177 73.8402 233.993 69.632C232.766 65.2708 229.368 61.3678 224.677 58.8336C215.303 53.7696 202.246 54.8134 195.044 67.3115C194.473 68.3021 193.506 69.0011 192.386 69.2319C171.916 73.4526 156.017 83.1721 144.795 93.0215C147.424 91.8956 150.146 90.8171 152.909 89.79C167.437 84.3898 183.549 80.2412 194.201 78.0149C195.769 77.2233 198.072 76.425 200.504 76.5172C201.96 76.5724 203.613 76.9564 205.122 78.0151C206.659 79.0939 207.742 80.6605 208.371 82.5504C208.625 83.311 208.644 84.1301 208.426 84.9016C199.241 117.421 200.468 134.692 205.299 144.628C209.996 154.289 218.485 157.959 227.809 161.989L228.164 162.143C229.628 162.776 230.576 164.219 230.576 165.814C230.576 170.037 233.342 174.863 237.743 179.552C241.443 183.494 245.822 186.831 249.141 188.963Z" fill="#ED0B00"/>
<path d="M75.2344 288.703H33.4688V300.375H58.4062V307.031C58.4062 310.656 57.4375 313.453 55.5 315.422C53.5312 317.391 50.7188 318.375 47.0625 318.375H28.1719C24.5469 318.375 21.75 317.391 19.7812 315.422C17.8125 313.453 16.8281 310.656 16.8281 307.031V287.156C16.8281 283.5 17.8125 280.688 19.7812 278.719C21.75 276.75 24.5469 275.766 28.1719 275.766H66.4688V263.672H20.6719C14.9844 263.672 10.125 265.688 6.09375 269.719C2.03125 273.75 0 278.625 0 284.344V309.375C0 315.062 2.03125 319.922 6.09375 323.953C10.125 327.984 14.9844 330 20.6719 330H54.5625C60.2812 330 65.1562 327.984 69.1875 323.953C73.2188 319.922 75.2344 315.062 75.2344 309.375V288.703Z" fill="#ED0B00"/>
<path d="M162.703 263.625H145.875V306.562C145.875 310.188 144.891 312.984 142.922 314.953C140.984 316.922 138.188 317.906 134.531 317.906H115.641C111.984 317.906 109.188 316.922 107.25 314.953C105.281 312.984 104.297 310.188 104.297 306.562V263.625H87.4688V309.375C87.4688 315.062 89.5 319.922 93.5625 323.953C97.5938 327.984 102.453 330 108.141 330H142.031C147.719 330 152.594 327.984 156.656 323.953C160.688 319.922 162.703 315.062 162.703 309.375V263.625Z" fill="#ED0B00"/>
<path fill-rule="evenodd" clip-rule="evenodd" d="M191.766 330V308.812H233.344V330H250.172V284.344C250.172 278.625 248.141 273.75 244.078 269.719C240.047 265.688 235.188 263.672 229.5 263.672H195.609C189.891 263.672 185.016 265.688 180.984 269.719C176.953 273.75 174.938 278.625 174.938 284.344V330H191.766ZM233.344 285.75V296.719H191.766V285.75C191.766 282.406 192.734 279.906 194.672 278.25C196.641 276.594 199.453 275.766 203.109 275.766H222C225.625 275.766 228.422 276.594 230.391 278.25C232.359 279.906 233.344 282.406 233.344 285.75Z" fill="#ED0B00"/>
<path fill-rule="evenodd" clip-rule="evenodd" d="M337.641 313.781C337.641 306.719 334.75 301.109 328.969 296.953C334.625 293.297 337.453 288.344 337.453 282.094C337.453 277.156 335.719 273.031 332.25 269.719C328.438 265.688 323.344 263.672 316.969 263.672H274.453C271.141 263.672 268.297 264.844 265.922 267.188C263.578 269.531 262.406 272.219 262.406 275.25V330H279.234V303.797H309.469C313.094 303.797 315.891 304.781 317.859 306.75C319.828 308.719 320.812 311.531 320.812 315.188V330H337.641V313.781ZM318.328 289.969C316.578 291.125 313.625 291.703 309.469 291.703H279.234V279.938C279.234 278.969 279.672 278.031 280.547 277.125C281.453 276.219 282.547 275.766 283.828 275.766H309.469C313.688 275.766 316.672 276.234 318.422 277.172C320.234 278.266 321.219 280.297 321.375 283.266C321.219 286.609 320.203 288.844 318.328 289.969Z" fill="#ED0B00"/>
<path fill-rule="evenodd" clip-rule="evenodd" d="M366.703 330V308.812H408.281V330H425.109V284.344C425.109 278.625 423.078 273.75 419.016 269.719C414.984 265.688 410.125 263.672 404.438 263.672H370.547C364.828 263.672 359.953 265.688 355.922 269.719C351.891 273.75 349.875 278.625 349.875 284.344V330H366.703ZM408.281 285.75V296.719H366.703V285.75C366.703 282.406 367.672 279.906 369.609 278.25C371.578 276.594 374.391 275.766 378.047 275.766H396.938C400.562 275.766 403.359 276.594 405.328 278.25C407.297 279.906 408.281 282.406 408.281 285.75Z" fill="#ED0B00"/>
<path d="M386.578 246.75L378.141 260.391H394.969L407.625 246.75H386.578Z" fill="#ED0B00"/>
</svg>
